<svg width="1022" height="842" viewBox="0 0 1022 842" fill="none" xmlns="http://www.w3.org/2000/svg">
<rect width="1022" height="842" fill="#1E1E1E"/>
<path d="M132.523 496.251C85.9274 496.251 51.4168 485.276 28.9912 463.328C21.0177 455.459 14.5392 445.003 9.55571 431.958C4.57223 418.913 2.08051 403.073 2.08051 384.437C2.08051 365.802 5.69351 349.134 12.9195 334.432C20.3947 319.523 30.4863 308.031 43.1941 299.956C67.8623 284.841 97.6384 277.283 132.523 277.283C142.49 277.283 152.207 278.008 161.676 279.457C171.145 280.699 178.246 282.046 182.98 283.494L189.708 285.669L188.587 288.774C171.643 283.184 152.955 280.388 132.523 280.388C106.11 280.388 84.0586 287.532 66.3672 301.819C52.9119 312.38 43.4432 327.909 37.9615 348.408C34.7223 360.005 33.1026 374.188 33.1026 390.96C33.1026 407.732 35.968 423.262 41.6991 437.549C47.4302 451.63 53.9085 462.086 61.1346 468.919C68.6098 475.752 77.58 481.238 88.0453 485.38C98.5106 489.314 106.858 491.592 113.087 492.213C119.316 492.835 126.792 493.145 135.513 493.145C144.483 493.145 154.575 492.42 165.787 490.971C177 489.522 185.472 488.176 191.203 486.933L199.8 484.759L200.921 487.865C181.984 493.456 159.184 496.251 132.523 496.251ZM386.004 495.009C375.786 495.009 367.938 493.145 362.457 489.418C357.224 485.691 354.482 481.964 354.234 478.237L353.86 472.957V375.43C353.86 359.073 348.628 348.615 338.162 344.06C333.178 341.99 326.824 340.954 319.101 340.954C303.651 340.954 289.697 346.234 277.238 356.794C265.029 367.148 258.924 376.466 258.924 384.748V495.009H232.761V262.374H258.924V375.119C262.91 366.217 270.51 357.933 281.723 350.272C292.937 342.403 305.52 338.469 319.474 338.469C343.643 338.469 359.715 341.99 367.689 349.03C375.912 355.863 380.023 364.766 380.023 375.741V472.957C380.023 478.962 381.393 483.621 384.135 486.933C387.125 490.039 389.989 491.696 392.731 491.903L397.216 492.524H408.803V495.009H386.004ZM454.825 419.224C454.825 444.899 460.18 463.743 470.897 475.752C481.858 487.761 496.187 493.766 513.879 493.766C538.795 493.766 560.973 490.66 580.408 484.448L581.53 486.623C561.595 493.041 539.044 496.251 513.879 496.251C488.96 496.251 468.654 490.039 452.956 477.615C437.258 465.192 429.409 446.039 429.409 420.156C429.409 394.272 437.632 374.188 454.078 359.9C470.523 345.613 491.454 338.469 516.869 338.469C537.3 338.469 554.493 343.543 568.448 353.689C582.4 363.834 589.379 378.847 589.379 398.725C589.379 399.761 589.379 400.794 589.379 401.831H455.946C455.199 407.421 454.825 413.218 454.825 419.224ZM563.963 399.346C563.712 379.468 559.104 364.766 550.134 355.241C541.164 345.717 529.577 340.954 515.374 340.954C501.171 340.954 488.463 346.13 477.251 356.484C466.286 366.838 459.31 381.125 456.32 399.346H563.963ZM663.392 495.009C641.463 495.009 627.634 490.245 621.905 480.721C620.658 478.652 620.036 476.788 620.036 475.131V262.374H646.199V472.957C646.199 478.962 647.568 483.621 650.307 486.933C653.3 490.039 656.29 491.696 659.281 491.903L663.392 492.524H674.978V495.009H663.392Z" fill="black"/>
<g filter="url(#filter0_d_0_1)">
<path d="M591.28 1.69666C653.493 1.69666 710.451 10.7605 762.161 28.8884C813.059 47.0161 857.093 73.5362 894.259 108.449C930.616 143.362 958.893 186.331 979.094 237.358C999.291 288.384 1009.39 346.795 1009.39 412.592C1009.39 477.048 999.694 534.786 980.305 585.814C960.105 636.841 931.827 679.809 895.471 714.722C858.305 749.635 814.271 776.154 763.373 794.283C711.662 813.081 654.299 822.481 591.28 822.481C546.034 822.481 504.021 817.446 465.241 807.374C425.651 797.304 390.909 782.533 361.017 763.063C330.313 743.593 304.865 719.422 284.666 690.552C263.659 661.681 249.116 628.782 241.037 591.856H335.566C339.605 616.026 348.896 637.51 363.441 656.311C377.176 675.109 395.353 690.886 417.978 703.643C440.599 716.401 466.855 725.799 496.75 731.844C525.836 738.555 557.346 741.914 591.28 741.914C638.949 741.914 682.576 734.865 722.166 720.764C761.755 707.336 795.688 686.858 823.968 659.332C852.246 631.803 874.061 597.228 889.412 555.601C904.762 514.644 912.439 466.975 912.439 412.592C912.439 357.537 904.762 309.196 889.412 267.572C874.061 226.615 852.246 192.374 823.968 164.846C795.688 137.319 761.755 116.506 722.166 102.406C682.576 88.9785 638.949 82.2644 591.28 82.2644C559.77 82.2644 529.472 85.2859 500.386 91.3284C471.3 98.0423 445.446 107.442 422.825 119.527C399.395 132.284 380.003 147.726 364.652 165.854C349.302 184.653 339.605 206.473 335.566 231.315H241.037C249.924 193.717 264.871 160.482 285.878 131.612C306.077 103.414 331.525 79.5789 362.229 60.1084C392.121 40.6378 426.863 26.2027 466.452 16.8031C505.233 6.73213 546.843 1.69666 591.28 1.69666Z" fill="black"/>
</g>
<path d="M1.75201 550.988C1.75201 550.229 2.07321 549.574 2.71561 549.023C3.35801 548.472 4.16589 548.198 5.13921 548.198C6.11254 548.198 6.93989 548.472 7.62121 549.023C8.30254 549.574 8.64321 550.229 8.64321 550.988C8.64321 551.748 8.30254 552.388 7.62121 552.905C6.93989 553.422 6.11254 553.682 5.13921 553.682C4.16589 553.682 3.35801 553.422 2.71561 552.905C2.07321 552.371 1.75201 551.733 1.75201 550.988ZM12.1887 550.988C12.1887 550.229 12.5099 549.574 13.1523 549.023C13.7947 548.472 14.6026 548.198 15.5759 548.198C16.5493 548.198 17.3766 548.472 18.0579 549.023C18.7393 549.574 19.0799 550.229 19.0799 550.988C19.0799 551.748 18.7393 552.388 18.0579 552.905C17.3766 553.422 16.5493 553.682 15.5759 553.682C14.6026 553.682 13.7947 553.422 13.1523 552.905C12.5099 552.371 12.1887 551.733 12.1887 550.988ZM22.6255 550.988C22.6255 550.229 22.9467 549.574 23.5891 549.023C24.2315 548.472 25.0393 548.198 26.0127 548.198C26.986 548.198 27.8133 548.472 28.4947 549.023C29.176 549.574 29.5165 550.229 29.5165 550.988C29.5165 551.748 29.176 552.388 28.4947 552.905C27.8133 553.422 26.986 553.682 26.0127 553.682C25.0393 553.682 24.2315 553.422 23.5891 552.905C22.9467 552.371 22.6255 551.733 22.6255 550.988ZM37.2087 553.245V522.768H50.9327C53.6191 522.768 55.8479 523.139 57.6195 523.884C59.3908 524.612 60.7147 525.583 61.5907 526.796C62.4667 527.992 62.9047 529.303 62.9047 530.727C62.9047 532.474 62.3207 533.995 61.1527 535.289C60.004 536.568 58.2715 537.441 55.9551 537.909C57.4539 538.104 58.7679 538.548 59.8971 539.244C61.0455 539.923 61.9411 540.765 62.5835 541.768C63.2259 542.755 63.5471 543.813 63.5471 544.946C63.5471 545.982 63.3328 546.992 62.9047 547.979C62.4959 548.967 61.8047 549.855 60.8315 550.649C59.858 551.442 58.5635 552.073 56.9479 552.541C55.332 553.01 53.3271 553.245 50.9327 553.245H37.2087ZM41.7639 549.945H50.8743C53.6579 549.945 55.6532 549.46 56.8603 548.489C58.0867 547.518 58.6999 546.274 58.6999 544.752C58.6999 543.216 58.0379 541.986 56.7143 541.064C55.3904 540.125 53.4439 539.656 50.8743 539.656H41.7639V549.945ZM41.7639 526.019V536.405H50.7575C53.0351 536.405 54.8455 535.944 56.1887 535.022C57.5512 534.083 58.2327 532.765 58.2327 531.067C58.2327 529.482 57.5707 528.245 56.2471 527.354C54.9427 526.464 53.1323 526.019 50.8159 526.019H41.7639ZM73.422 553.245V522.768H96.0227V526.019H77.9771V536.259H94.9716V539.511H77.9771V549.945H96.0227V553.245H73.422ZM100.725 526.019V522.768H129.283V526.019H116.231L117.253 525.146V553.245H112.697V525.146L113.719 526.019H100.725ZM129.982 526.019V522.768H158.54V526.019H145.488L146.51 525.146V553.245H141.954V525.146L142.976 526.019H129.982ZM164.729 553.245V522.768H187.33V526.019H169.284V536.259H186.279V539.511H169.284V549.945H187.33V553.245H164.729ZM197.58 553.245V522.768H210.37C214.555 522.768 217.719 523.6 219.86 525.267C222.021 526.917 223.101 529.094 223.101 531.795C223.101 534.464 222.021 536.631 219.86 538.298C217.719 539.948 214.555 540.773 210.37 540.773H202.136V553.245H197.58ZM218.137 553.245L207.625 539.414H212.589L224.036 553.245H218.137ZM202.136 538.104H210.02C212.764 538.104 214.847 537.545 216.268 536.429C217.709 535.296 218.429 533.833 218.429 532.037C218.429 530.193 217.738 528.73 216.356 527.645C214.993 526.561 212.998 526.019 210.37 526.019H202.136V538.104ZM247.198 553.245V522.768H251.753V553.245H247.198ZM275.304 553.827C272.851 553.827 270.603 553.463 268.559 552.735C266.515 551.99 264.87 550.899 263.624 549.46C262.378 548.021 261.736 546.24 261.697 544.121H266.135C266.135 545.546 266.554 546.718 267.391 547.64C268.228 548.545 269.338 549.224 270.72 549.678C272.102 550.115 273.61 550.333 275.246 550.333C277.017 550.333 278.555 550.098 279.859 549.629C281.164 549.161 282.166 548.545 282.867 547.785C283.587 547.009 283.947 546.16 283.947 545.237C283.947 543.944 283.47 542.901 282.516 542.107C281.562 541.299 280.151 540.644 278.282 540.142L271.8 538.249C268.763 537.344 266.466 536.308 264.909 535.143C263.352 533.978 262.573 532.345 262.573 530.242C262.573 527.881 263.663 525.954 265.843 524.467C268.043 522.979 271.158 522.234 275.187 522.234C278.925 522.234 281.845 522.955 283.947 524.394C286.05 525.818 287.256 527.735 287.568 530.145H283.071C282.779 528.737 281.981 527.645 280.677 526.869C279.392 526.075 277.562 525.68 275.187 525.68C272.773 525.68 270.895 526.124 269.552 527.014C268.208 527.905 267.537 529.028 267.537 530.387C267.537 531.503 267.955 532.394 268.792 533.056C269.649 533.704 270.982 534.287 272.793 534.803L280.385 536.987C283.013 537.715 285.086 538.734 286.604 540.045C288.142 541.355 288.911 543.054 288.911 545.14C288.911 546.759 288.386 548.222 287.334 549.532C286.303 550.843 284.774 551.886 282.75 552.663C280.726 553.439 278.244 553.827 275.304 553.827ZM312.668 522.768H318.099L336.729 547.858H336.32V522.768H340.875V553.245H335.794L316.522 527.33H317.223V553.245H312.668V522.768ZM365.613 553.827C362.576 553.827 359.861 553.245 357.466 552.08C355.072 550.916 353.183 549.168 351.802 546.839C350.42 544.493 349.728 541.566 349.728 538.055C349.728 534.495 350.42 531.552 351.802 529.223C353.183 526.876 355.072 525.129 357.466 523.981C359.861 522.816 362.576 522.234 365.613 522.234C368.65 522.234 371.366 522.816 373.76 523.981C376.154 525.146 378.044 526.9 379.425 529.247C380.806 531.593 381.498 534.529 381.498 538.055C381.498 541.598 380.806 544.541 379.425 546.888C378.044 549.217 376.154 550.957 373.76 552.104C371.366 553.252 368.65 553.827 365.613 553.827ZM365.613 550.333C369.059 550.333 371.774 549.29 373.76 547.203C375.766 545.116 376.768 542.051 376.768 538.006C376.768 534.044 375.766 530.994 373.76 528.859C371.774 526.706 369.059 525.631 365.613 525.631C362.206 525.631 359.49 526.706 357.466 528.859C355.46 531.011 354.459 534.076 354.459 538.055C354.459 542.083 355.46 545.14 357.466 547.227C359.49 549.297 362.206 550.333 365.613 550.333ZM384.798 526.019V522.768H413.355V526.019H400.303L401.325 525.146V553.245H396.77V525.146L397.792 526.019H384.798ZM427.914 526.019V522.768H456.472V526.019H443.42L444.441 525.146V553.245H439.886V525.146L440.908 526.019H427.914ZM462.718 522.768H467.273V536.211H485.435V522.768H489.932V553.245H485.435V539.462H467.273V553.245H462.718V522.768ZM501.726 553.245V522.768H524.327V526.019H506.281V536.259H523.276V539.511H506.281V549.945H524.327V553.245H501.726ZM548.379 553.245V522.768H570.98V526.019H552.934V536.259H569.928V539.511H552.934V549.945H570.98V553.245H548.379ZM581.171 522.768H586.602L605.231 547.858H604.822V522.768H609.378V553.245H604.297L585.025 527.33H585.726V553.245H581.171V522.768ZM621.151 522.768H631.897C635.596 522.768 638.808 523.399 641.533 524.661C644.257 525.905 646.371 527.67 647.869 529.95C649.367 532.231 650.118 534.918 650.118 538.006C650.118 541.064 649.367 543.733 647.869 546.014C646.371 548.295 644.257 550.074 641.533 551.352C638.808 552.614 635.596 553.245 631.897 553.245H621.151V522.768ZM625.706 526.117V549.945H631.897C634.662 549.945 637.036 549.428 639.022 548.392C641.028 547.356 642.563 545.941 643.635 544.146C644.724 542.333 645.27 540.287 645.27 538.006C645.27 535.709 644.724 533.67 643.635 531.892C642.563 530.096 641.028 528.689 639.022 527.67C637.036 526.633 634.662 526.117 631.897 526.117H625.706Z" fill="black"/>
<defs>
<filter id="filter0_d_0_1" x="237.037" y="1.69666" width="776.354" height="828.784" filterUnits="userSpaceOnUse" color-interpolation-filters="sRGB">
<feFlood flood-opacity="0" result="BackgroundImageFix"/>
<feColorMatrix in="SourceAlpha" type="matrix" values="0 0 0 0 0 0 0 0 0 0 0 0 0 0 0 0 0 0 127 0" result="hardAlpha"/>
<feOffset dy="4"/>
<feGaussianBlur stdDeviation="2"/>
<feComposite in2="hardAlpha" operator="out"/>
<feColorMatrix type="matrix" values="0 0 0 0 0 0 0 0 0 0 0 0 0 0 0 0 0 0 0.25 0"/>
<feBlend mode="normal" in2="BackgroundImageFix" result="effect1_dropShadow_0_1"/>
<feBlend mode="normal" in="SourceGraphic" in2="effect1_dropShadow_0_1" result="shape"/>
</filter>
</defs>
</svg>
